<svg width="210" height="78" viewBox="0 0 210 78" fill="none" xmlns="http://www.w3.org/2000/svg">
<path d="M81.7094 27.4338V12.556H80.9445C79.0729 12.556 78.1289 11.3031 78.1289 9.56888C78.1289 7.83466 79.0647 6.5817 80.9445 6.5817H81.7094C84.582 6.5817 85.8677 5.8681 87.0965 1.80222C87.8614 -0.770064 93.5415 -0.58752 93.5415 2.34157V6.5817H95.6491C97.5208 6.5817 98.5217 7.83466 98.5217 9.56888C98.5217 11.3031 97.5289 12.556 95.6491 12.556H93.5415V26.0564C93.5415 27.9649 93.8914 28.9274 95.2992 28.9274C96.707 28.9274 98.2287 27.4919 99.5796 28.4462C101.687 29.9978 99.8725 37.8226 91.0839 37.8226C84.9889 37.8226 81.7094 33.5244 81.7094 27.4255V27.4338Z" fill="#F5F5F5"/>
<path d="M101.49 23.2409C101.49 14.2003 107.636 6.67454 116.538 6.67454C124.733 6.67454 128.188 13.0338 128.188 18.5181C128.188 21.0294 127.131 22.7791 123.562 22.7791H113.554C114.197 26.2787 116.075 28.6118 120.05 28.6118C123.798 28.6118 125.554 25.5821 127.253 26.9754C129.416 28.7819 126.847 37.8225 116.075 37.8225C106.945 37.8225 101.498 31.9899 101.498 23.2409H101.49ZM117.879 17.4082C118.172 14.4919 117.766 12.1589 116.123 12.1589C114.603 12.1589 113.603 14.4352 113.31 17.7566L117.879 17.4082Z" fill="#F5F5F5"/>
<path d="M129.309 34.696C129.309 33.1455 130.887 32.2823 130.887 29.7487V14.5551C130.887 12.0215 129.309 11.7338 129.309 10.1832C129.309 8.63268 130.102 8.34496 131.554 8.11318C133.259 7.82545 137.75 7.01821 139.877 6.73048C142.005 6.44275 142.731 7.30594 142.731 8.92041V9.72764C144.005 7.94533 145.769 6.67454 148.564 6.67454C152.641 6.67454 154.886 9.37598 154.886 12.7168C154.886 15.5941 153.73 20.4855 149.779 20.4855C147.77 20.4855 146.926 19.1587 146.436 17.84C146.014 16.801 145.466 15.9378 144.554 15.9378C143.397 15.9378 142.975 16.9128 142.975 19.0468V29.7487C142.975 32.2823 144.554 33.1455 144.554 34.696C144.554 36.2466 144.064 36.7101 143.034 36.7101H130.82C129.849 36.7101 129.3 36.1906 129.3 34.696H129.309Z" fill="#F5F5F5"/>
<path d="M156.007 34.696C156.007 33.1455 157.517 32.2823 157.517 29.7487V14.5551C157.517 12.0215 156.007 11.7338 156.007 10.1832C156.007 8.63268 156.766 8.34496 158.154 8.11318C159.785 7.82545 164.081 7.01821 166.116 6.73048C168.15 6.44275 168.845 7.30594 168.845 8.92041V9.72764C170.064 7.94533 171.752 6.67454 174.424 6.67454C178.324 6.67454 180.472 9.37598 180.472 12.7168C180.472 15.5941 179.366 20.4855 175.587 20.4855C173.665 20.4855 172.858 19.1587 172.39 17.84C171.986 16.801 171.461 15.9378 170.589 15.9378C169.483 15.9378 169.079 16.9128 169.079 19.0468V29.7487C169.079 32.2823 170.589 33.1455 170.589 34.696C170.589 36.2466 170.121 36.7101 169.136 36.7101H157.452C156.523 36.7101 155.999 36.1906 155.999 34.696H156.007Z" fill="#F5F5F5"/>
<path d="M180.472 29.1384C180.472 22.1392 187.039 19.8628 195.356 19.6846V15.6017C195.356 13.0338 194.949 12.1589 193.777 12.1589C192.719 12.1589 192.019 13.3821 191.376 15.1886C190.904 16.7602 190.262 18.1049 187.682 18.1049C184.866 18.1049 182.295 16.1769 182.295 13.7304C182.295 9.70428 187.161 6.67454 193.842 6.67454C206.439 6.67454 207.025 14.897 207.025 17.6999V28.547C207.025 31.4633 208.197 30.5317 208.896 31.4066C210.418 33.2698 208.49 37.8225 202.688 37.8225C199.351 37.8225 197.471 36.1862 196.536 33.7964C195.478 36.016 193.313 37.8225 189.09 37.8225C183.345 37.8225 180.48 34.3796 180.48 29.1303L180.472 29.1384ZM193.37 30.6532C194.656 30.6532 195.364 29.2518 195.364 27.3319V24.5938C192.613 24.7072 191.612 25.9385 191.612 27.9799C191.612 29.3814 192.141 30.6613 193.37 30.6613V30.6532Z" fill="#F5F5F5"/>
<path d="M89.3873 75.2853C88.9499 74.3993 83.6042 60.5816 80.7694 53.315C79.7002 50.6003 78.1289 49.5273 78.1289 47.8204C78.1289 46.1135 78.6311 45.6096 79.7002 45.6096H93.032C94.1012 45.6096 94.6033 46.1786 94.6033 47.8204C94.6033 49.4623 92.781 50.6571 93.6638 53.315L97.3086 63.9791L100.832 53.315C101.715 50.4133 99.8275 49.5273 99.8275 47.8204C99.8275 46.1135 100.395 45.6096 101.399 45.6096H108.818C109.887 45.6096 110.389 46.1786 110.389 47.8204C110.389 49.4623 108.437 50.4702 107.368 53.315L99.131 75.2203C98.6288 76.6752 97.3086 77.87 94.9192 77.87H93.7205C91.7685 77.87 90.1324 77.0491 89.3792 75.2853H89.3873Z" fill="#F5F5F5"/>
<path d="M109.277 68.5532C109.277 61.0548 116.346 58.617 125.309 58.4319V54.0552C125.309 51.3036 124.87 50.3703 123.603 50.3703C122.465 50.3703 121.709 51.6817 121.019 53.6207C120.515 55.3103 119.816 56.7424 117.045 56.7424C114.014 56.7424 111.235 54.6827 111.235 52.0599C111.235 47.7475 116.476 44.4971 123.668 44.4971C137.238 44.4971 137.863 53.3069 137.863 56.3079V67.9337C137.863 71.0554 139.123 70.0577 139.887 70.9991C141.528 73.0024 139.448 77.8699 133.199 77.8699C129.599 77.8699 127.584 76.1241 126.577 73.5576C125.439 75.931 123.107 77.8699 118.565 77.8699C112.381 77.8699 109.285 74.1851 109.285 68.5613L109.277 68.5532ZM123.164 70.1784C124.553 70.1784 125.309 68.682 125.309 66.6143V63.6776C122.343 63.8064 121.27 65.1178 121.27 67.2981C121.27 68.7946 121.839 70.1704 123.164 70.1704V70.1784Z" fill="#F5F5F5"/>
<path d="M143.152 66.1834V53.0562C143.152 50.3035 141.537 49.9896 141.537 48.3075C141.537 46.6253 142.281 46.3115 143.832 46.0539C145.511 45.74 150.596 44.8627 152.771 44.5569C154.946 44.243 155.69 45.1847 155.69 46.9312V63.9298C155.69 67.0526 156.497 68.4933 158.361 68.4933C160.224 68.4933 161.031 66.6824 161.031 63.1813V53.0562C161.031 50.3035 159.352 49.9896 159.352 48.3075C159.352 46.6253 160.16 46.3115 161.647 46.0539C163.382 45.74 168.475 44.8627 170.65 44.5569C172.825 44.243 173.569 45.1847 173.569 46.9312V67.9299C173.569 71.0528 174.808 70.0548 175.552 70.9964C177.167 73.0005 174.56 77.8699 168.723 77.8699C164.997 77.8699 163.014 75.9946 162.079 73.242C160.399 75.6163 158.105 77.8699 153.387 77.8699C146.926 77.8699 143.144 73.3708 143.144 66.1834H143.152Z" fill="#F5F5F5"/>
<path d="M180.008 76.2071C180.008 74.9228 181.216 74.2067 181.216 72.1075V50.3172C181.216 48.1686 180.008 47.4524 180.008 46.1682C180.008 44.884 180.376 44.4971 181.12 44.4971H191.268C201.976 44.637 208.923 51.3626 208.923 61.3235C208.923 71.2843 204.009 77.7218 193.765 77.8699H181.112C180.368 77.8699 180 77.4913 180 76.1988L180.008 76.2071ZM192.34 72.0169H193.085C196.518 72.0169 198.046 67.3905 198.046 61.2905C198.046 55.668 195.309 50.3748 192.348 50.3748C191.188 50.3748 190.956 51.2309 190.956 52.474V69.9671C190.956 71.2102 191.188 72.0169 192.348 72.0169H192.34Z" fill="#F5F5F5"/>
<path d="M30.2909 77.5431C28.5943 76.7573 23.5874 74.9466 13.4247 74.9466C9.94114 74.9466 6.55033 75.4078 3.39143 76.2936C3.25228 76.3327 3.14975 76.4498 3.13022 76.5938L3.00084 77.5455C2.98375 77.7383 3.23031 77.9994 3.42073 77.9994H30.2616C30.4642 77.9994 30.474 77.6285 30.2909 77.5431Z" fill="#F5F5F5"/>
<path d="M38.2575 77.9994C38.111 77.9994 37.9694 77.9555 37.8473 77.875C33.1774 74.7929 27.5773 72.5722 22.0968 71.6278C19.2479 71.1275 16.3185 70.886 13.4306 70.9006C10.423 70.9128 7.47897 71.191 4.57884 71.7376C4.21754 71.8084 3.74151 71.8743 3.71222 71.4179C3.66583 70.8908 3.76592 70.3198 3.80498 69.7878C3.87333 68.8703 4.27857 68.7263 5.03778 68.6189C8.121 68.1089 11.2799 67.8795 14.4266 67.9259C21.5842 68.0357 28.7905 69.5438 35.2255 72.7406C37.6765 73.9876 40.2617 75.5982 42.2171 77.5724C42.3733 77.7286 42.2635 77.9946 42.0413 77.9946H38.255L38.2575 77.9994Z" fill="#F5F5F5"/>
<path d="M62.0931 1.19819C62.0955 0.546628 61.5682 0.0170821 60.9165 0.0170821H51.7669C51.1175 0.0170821 50.5902 0.544188 50.5902 1.19575C50.5902 1.89856 50.5927 2.65261 50.5902 3.24316C50.5951 5.01726 50.5902 8.33852 50.5902 10.5201C50.5902 11.0961 50.1215 11.5622 49.5454 11.5622H39.9247C39.351 11.5622 38.8823 11.0936 38.8823 10.5226C38.8774 10.0589 38.875 9.55379 38.875 9.02424C38.875 6.52537 38.914 3.43351 38.875 1.05177C38.8652 0.488061 38.4136 0.0366046 37.8521 0.024403L24.45 0.0024403C23.7738 0.0024403 23.2221 0.546628 23.2196 1.22259C23.2099 3.72878 23.2733 8.08472 23.2465 10.5568C23.2392 11.0985 22.7973 11.5304 22.2578 11.528L12.5443 11.5622C11.9999 11.5622 11.5215 11.0546 11.5215 10.5104C11.519 7.69672 11.5337 3.28465 11.5288 1.12986C11.5288 0.505143 11.021 0 10.3961 0L1.039 0.0195224C0.470202 0.0366045 0.0161411 0.495382 0.0112588 1.06397C-0.0155943 5.01238 0.0136999 17.0943 0.0161411 21.5503C0.0185823 22.4386 0.738733 23.1585 1.62977 23.1585H6.16305C7.10535 23.1585 7.84747 23.9638 7.76935 24.9033C7.07362 33.1344 5.15972 55.5852 4.97419 57.7815C4.97175 57.823 4.98884 57.8498 5.04255 57.8596C5.12555 57.8767 5.31352 57.8523 5.5967 57.8059C5.72364 57.7864 5.87011 57.762 6.0239 57.7376C10.2325 56.9957 14.6559 56.8932 18.9817 56.9347C19.5237 56.8688 19.758 56.2905 19.8752 55.7634C21.7329 48.3082 30.9728 44.6795 37.4591 49.1087C38.3501 49.6943 39.1508 50.424 39.849 51.2098C40.3446 51.7979 40.95 51.732 41.5359 51.3757C45.6493 49.2087 50.1874 47.5664 55.0015 46.4975C55.3676 46.4219 55.9389 46.3243 56.0756 46.051C56.1244 45.9436 56.1268 45.8143 56.1171 45.6849C55.9682 44.0865 55.685 40.47 55.5141 38.5763C55.3994 37.1512 54.6695 28.82 54.3594 24.896C54.2862 23.9589 55.0259 23.1585 55.9657 23.1585H60.4941C61.3754 23.1585 62.0907 22.4508 62.1053 21.5698C62.1712 17.1505 62.0785 5.17588 62.0931 1.19819ZM27.0401 34.3546C27.0401 35.0379 26.4859 35.5894 25.8024 35.5894H16.4771C15.7935 35.5894 15.2369 35.0354 15.2369 34.3522V25.018C15.2369 24.3347 15.7911 23.7808 16.4771 23.7808H25.8024C26.4884 23.7808 27.0425 24.3347 27.0425 25.018C27.0401 27.285 27.0401 32.0851 27.0401 34.3546ZM46.5745 34.3546C46.5745 35.0379 46.0203 35.5894 45.3368 35.5894H36.0115C35.3279 35.5894 34.7713 35.0354 34.7713 34.3522V25.018C34.7713 24.3347 35.3255 23.7808 36.0115 23.7808H45.3368C46.0228 23.7808 46.5769 24.3347 46.5769 25.018C46.5769 27.285 46.5745 32.0851 46.5745 34.3546Z" fill="#F5F5F5"/>
<path d="M39.4265 61.8983C38.6648 61.5811 37.8934 61.2809 37.1171 61.0003C36.812 60.888 36.7241 60.4952 36.9633 60.2731C37.9667 59.3458 39.0188 58.4697 40.11 57.6473C41.5406 56.5638 43.0394 55.5682 44.5872 54.6604C47.7461 52.8033 51.2492 51.2488 54.8109 50.0799C55.3284 49.9701 56.217 49.4113 56.5002 50.0043C56.6369 50.2947 56.6564 50.9194 56.7077 51.4612C56.7858 52.1615 56.6735 52.6911 55.9021 52.9034C51.4982 54.3749 47.5483 56.2515 43.9207 58.7015C42.7245 59.5142 41.5918 60.3683 40.5275 61.2639C40.3078 61.4493 40.0905 61.6348 39.8781 61.8227C39.7536 61.9325 39.5778 61.9618 39.4265 61.8983Z" fill="#F5F5F5"/>
<path d="M47.3651 65.9638C46.7499 65.5807 46.1274 65.2122 45.4951 64.8559C45.1924 64.6851 45.1436 64.2678 45.4024 64.0384C48.5149 61.3053 52.0961 59.1871 56.0191 57.5814C57.4228 56.9005 57.2275 57.8303 57.3617 59.0163C57.5497 60.3267 56.9663 60.4805 55.9117 60.9392C52.9115 62.3009 50.2262 63.9847 47.9583 65.9199C47.7899 66.0639 47.5531 66.081 47.3651 65.9663V65.9638Z" fill="#F5F5F5"/>
<path d="M48.7032 71.9498C49.7773 72.7259 51.6985 74.5707 52.631 75.5151C53.3146 76.2057 54.0591 76.9061 54.5376 77.7334C54.5889 78.0042 54.1958 77.9749 54.003 77.9945C53.3365 78.0018 52.2014 78.0018 51.5227 77.9945C50.7977 78.014 50.3607 77.6992 49.8579 77.155C48.5543 75.8568 47.1506 74.6635 45.6785 73.58C42.7906 71.4545 39.6561 69.7145 36.3678 68.3211C33.2944 67.0155 30.0818 66.0175 26.8106 65.2902C25.4582 64.9925 24.0887 64.7412 22.707 64.5362C17.993 63.8431 13.1399 63.6992 8.40403 64.0945C7.3885 64.1775 6.37297 64.2897 5.38673 64.4215C5.01078 64.4752 4.45419 64.5484 4.3956 64.1213C4.3834 64.0774 4.37607 64.0262 4.37119 63.97C4.36143 63.809 4.36631 63.6406 4.37363 63.4722C4.39072 63.1794 4.4249 62.8817 4.44931 62.5986C4.49813 62.0837 4.6031 61.7347 4.85943 61.5737C5.04496 61.4492 5.30861 61.4077 5.6162 61.3662C10.916 60.7122 16.477 60.722 21.8403 61.3906C22.9315 61.5273 24.0154 61.6908 25.0871 61.8811C27.3086 62.2716 29.5398 62.8011 31.6808 63.4307C31.92 63.4991 32.1568 63.5698 32.3936 63.643C32.4815 63.6723 32.5669 63.6967 32.6524 63.7114C34.2416 64.1897 35.8113 64.7143 37.3126 65.3757C38.3086 65.8149 40.3397 66.6959 41.2624 67.2181L41.2673 67.2205C42.6905 67.9599 44.0918 68.7408 45.4149 69.634C46.2473 70.1977 47.8878 71.3617 48.7032 71.9498Z" fill="#F5F5F5"/>
<path d="M57.3399 69.0728C56.5099 69.6439 55.719 70.2686 54.9915 70.9324C54.7694 71.1349 54.43 71.1349 54.203 70.9397C53.7221 70.5297 53.2314 70.1271 52.7358 69.7317C52.4429 69.4999 52.4258 69.0655 52.7041 68.8142C53.0874 68.4677 53.5244 68.0967 54.0272 67.7014C55.1258 66.8497 56.1755 66.1103 57.3228 65.4978C58.0772 65.1171 57.96 66.2641 58.0381 66.735C58.1528 67.7966 58.2578 68.5384 57.3448 69.0704L57.3399 69.0728Z" fill="#F5F5F5"/>
</svg>
