<svg width="86" height="32" viewBox="0 0 86 32" fill="none" xmlns="http://www.w3.org/2000/svg">
<path d="M33.5198 11.2545V5.15101H33.206C32.4382 5.15101 32.0509 4.637 32.0509 3.92555C32.0509 3.2141 32.4348 2.70009 33.206 2.70009H33.5198C34.6982 2.70009 35.2257 2.40734 35.7298 0.739347C36.0436 -0.315912 38.3738 -0.241025 38.3738 0.96061V2.70009H39.2384C40.0062 2.70009 40.4169 3.2141 40.4169 3.92555C40.4169 4.637 40.0096 5.15101 39.2384 5.15101H38.3738V10.6894C38.3738 11.4724 38.5173 11.8672 39.0949 11.8672C39.6724 11.8672 40.2967 11.2783 40.8509 11.6698C41.7155 12.3064 40.971 15.5164 37.3656 15.5164C34.8652 15.5164 33.5198 13.7531 33.5198 11.2511V11.2545Z" fill="#754043"/>
<path d="M41.6342 9.5362C41.6342 5.82737 44.1556 2.73999 47.8076 2.73999C51.1695 2.73999 52.587 5.34881 52.587 7.5987C52.587 8.62893 52.1534 9.34677 50.6892 9.34677H46.5836C46.8471 10.7824 47.6175 11.7396 49.2484 11.7396C50.786 11.7396 51.5064 10.4966 52.2034 11.0683C53.0906 11.8094 52.0367 15.5182 47.6175 15.5182C43.8721 15.5182 41.6376 13.1254 41.6376 9.5362H41.6342ZM48.358 7.1434C48.478 5.947 48.3113 4.98989 47.6376 4.98989C47.0139 4.98989 46.6036 5.92374 46.4836 7.28631L48.358 7.1434Z" fill="#754043"/>
<path d="M53.0472 14.2356C53.0472 13.5995 53.6947 13.2454 53.6947 12.206V5.97292C53.6947 4.93353 53.0472 4.81549 53.0472 4.1794C53.0472 3.5433 53.3727 3.42527 53.9683 3.33018C54.6679 3.21214 56.5102 2.88098 57.3828 2.76294C58.2555 2.6449 58.5533 2.99902 58.5533 3.66134V3.9925C59.0763 3.26132 59.8 2.73999 60.9463 2.73999C62.6189 2.73999 63.5401 3.84823 63.5401 5.21878C63.5401 6.39916 63.0656 8.40581 61.445 8.40581C60.6208 8.40581 60.2745 7.86152 60.0736 7.32051C59.9005 6.89427 59.6754 6.54015 59.3014 6.54015C58.8269 6.54015 58.6538 6.94017 58.6538 7.81562V12.206C58.6538 13.2454 59.3014 13.5995 59.3014 14.2356C59.3014 14.8717 59.1005 15.0618 58.678 15.0618H53.667C53.2688 15.0618 53.0437 14.8487 53.0437 14.2356H53.0472Z" fill="#754043"/>
<path d="M63.9987 14.2356C63.9987 13.5995 64.6181 13.2454 64.6181 12.206V5.97292C64.6181 4.93353 63.9987 4.81549 63.9987 4.1794C63.9987 3.5433 64.31 3.42527 64.8798 3.33018C65.5489 3.21214 67.3111 2.88098 68.1459 2.76294C68.9806 2.6449 69.2655 2.99902 69.2655 3.66134V3.9925C69.7656 3.26132 70.4579 2.73999 71.5544 2.73999C73.1543 2.73999 74.0354 3.84823 74.0354 5.21878C74.0354 6.39916 73.5816 8.40581 72.0314 8.40581C71.243 8.40581 70.9117 7.86152 70.7196 7.32051C70.554 6.89427 70.3387 6.54015 69.9809 6.54015C69.5271 6.54015 69.3615 6.94017 69.3615 7.81562V12.206C69.3615 13.2454 69.9809 13.5995 69.9809 14.2356C69.9809 14.8717 69.7888 15.0618 69.3847 15.0618H64.5916C64.2107 15.0618 63.9954 14.8487 63.9954 14.2356H63.9987Z" fill="#754043"/>
<path d="M74.0349 11.9556C74.0349 9.08423 76.7289 8.15037 80.1407 8.07726V6.4023C80.1407 5.34881 79.9738 4.98989 79.4931 4.98989C79.0591 4.98989 78.772 5.49171 78.5083 6.23281C78.3147 6.87754 78.0509 7.42921 76.9927 7.42921C75.8376 7.42921 74.7827 6.63826 74.7827 5.63461C74.7827 3.98292 76.779 2.73999 79.5198 2.73999C84.6875 2.73999 84.9279 6.11317 84.9279 7.26304V11.713C84.9279 12.9094 85.4086 12.5272 85.6957 12.8861C86.32 13.6505 85.5288 15.5182 83.1486 15.5182C81.7798 15.5182 81.0087 14.8469 80.6248 13.8665C80.1908 14.7771 79.3028 15.5182 77.5702 15.5182C75.2133 15.5182 74.0383 14.1058 74.0383 11.9523L74.0349 11.9556ZM79.3262 12.577C79.8536 12.577 80.1441 12.0021 80.1441 11.2145V10.0912C79.0157 10.1377 78.6051 10.6429 78.6051 11.4803C78.6051 12.0553 78.8221 12.5804 79.3262 12.5804V12.577Z" fill="#754043"/>
<path d="M36.6697 30.8869C36.4902 30.5234 34.2972 24.8548 33.1342 21.8737C32.6956 20.76 32.051 20.3199 32.051 19.6196C32.051 18.9194 32.257 18.7126 32.6956 18.7126H38.1649C38.6035 18.7126 38.8095 18.9461 38.8095 19.6196C38.8095 20.2932 38.0619 20.7834 38.4241 21.8737L39.9193 26.2486L41.3647 21.8737C41.7269 20.6833 40.9527 20.3199 40.9527 19.6196C40.9527 18.9194 41.1853 18.7126 41.5973 18.7126H44.641C45.0796 18.7126 45.2856 18.9461 45.2856 19.6196C45.2856 20.2932 44.4848 20.7067 44.0462 21.8737L40.667 30.8602C40.4609 31.4571 39.9193 31.9472 38.9391 31.9472H38.4473C37.6466 31.9472 36.9754 31.6104 36.6663 30.8869H36.6697Z" fill="#754043"/>
<path d="M44.8293 28.124C44.8293 25.0478 47.7295 24.0477 51.4063 23.9718V22.1762C51.4063 21.0474 51.2263 20.6646 50.7063 20.6646C50.2396 20.6646 49.9296 21.2026 49.6462 21.998C49.4395 22.6911 49.1529 23.2787 48.0161 23.2787C46.7727 23.2787 45.6327 22.4337 45.6327 21.3577C45.6327 19.5886 47.7828 18.2551 50.733 18.2551C56.2999 18.2551 56.5566 21.8693 56.5566 23.1004V27.8698C56.5566 29.1504 57.0733 28.7412 57.3867 29.1273C58.06 29.9492 57.2067 31.9461 54.6432 31.9461C53.1664 31.9461 52.3397 31.2298 51.9264 30.1769C51.4597 31.1506 50.5029 31.9461 48.6395 31.9461C46.1027 31.9461 44.8326 30.4344 44.8326 28.1273L44.8293 28.124ZM50.5263 28.7907C51.0963 28.7907 51.4063 28.1768 51.4063 27.3285V26.1238C50.1896 26.1766 49.7496 26.7146 49.7496 27.6091C49.7496 28.223 49.9829 28.7874 50.5263 28.7874V28.7907Z" fill="#754043"/>
<path d="M58.7257 27.1517V21.7664C58.7257 20.6372 58.0631 20.5084 58.0631 19.8183C58.0631 19.1282 58.3682 18.9995 59.0045 18.8938C59.6934 18.765 61.7796 18.4051 62.6719 18.2796C63.5641 18.1509 63.8692 18.5372 63.8692 19.2537V26.2272C63.8692 27.5084 64.2005 28.0994 64.9648 28.0994C65.7291 28.0994 66.0604 27.3565 66.0604 25.9202V21.7664C66.0604 20.6372 65.3715 20.5084 65.3715 19.8183C65.3715 19.1282 65.7028 18.9995 66.313 18.8938C67.0248 18.765 69.1143 18.4051 70.0065 18.2796C70.8988 18.1509 71.2038 18.5372 71.2038 19.2537V27.8683C71.2038 29.1494 71.7123 28.7399 72.0173 29.1263C72.6799 29.9484 71.6106 31.9461 69.216 31.9461C67.6874 31.9461 66.8739 31.1767 66.4901 30.0475C65.8012 31.0215 64.8598 31.9461 62.9245 31.9461C60.274 31.9461 58.7224 30.1003 58.7224 27.1517H58.7257Z" fill="#754043"/>
<path d="M73.8442 31.2639C73.8442 30.737 74.3399 30.4432 74.3399 29.5821V20.6428C74.3399 19.7613 73.8442 19.4675 73.8442 18.9407C73.8442 18.4139 73.9952 18.2551 74.3005 18.2551H78.4636C82.8565 18.3125 85.7064 21.0717 85.7064 25.158C85.7064 29.2443 83.6905 31.8853 79.488 31.9461H74.2972C73.9919 31.9461 73.8409 31.7907 73.8409 31.2605L73.8442 31.2639ZM78.9036 29.5449H79.2089C80.6174 29.5449 81.2445 27.647 81.2445 25.1445C81.2445 22.8379 80.1216 20.6664 78.9069 20.6664C78.4308 20.6664 78.3356 21.0176 78.3356 21.5276V28.704C78.3356 29.2139 78.4308 29.5449 78.9069 29.5449H78.9036Z" fill="#754043"/>
<path d="M12.4272 31.8101C11.7311 31.4877 9.67712 30.7449 5.50797 30.7449C4.07887 30.7449 2.68782 30.9341 1.3919 31.2975C1.33482 31.3135 1.29276 31.3616 1.28475 31.4206L1.23167 31.8111C1.22466 31.8901 1.32581 31.9973 1.40392 31.9973H12.4152C12.4983 31.9973 12.5023 31.8451 12.4272 31.8101Z" fill="#754043"/>
<path d="M15.6953 32C15.6352 32 15.5771 31.982 15.527 31.9489C13.6112 30.6845 11.3138 29.7735 9.06548 29.3861C7.89676 29.1808 6.69499 29.0817 5.51024 29.0877C4.27642 29.0928 3.06864 29.2069 1.87889 29.4311C1.73067 29.4602 1.53538 29.4872 1.52336 29.3C1.50434 29.0837 1.5454 28.8495 1.56142 28.6312C1.58946 28.2548 1.75571 28.1958 2.06717 28.1517C3.33203 27.9425 4.62794 27.8484 5.91884 27.8674C8.85517 27.9124 11.8115 28.5311 14.4514 29.8426C15.4569 30.3542 16.5175 31.0149 17.3197 31.8248C17.3837 31.8889 17.3387 31.998 17.2475 31.998H15.6943L15.6953 32Z" fill="#754043"/>
<path d="M25.4732 0.491547C25.4742 0.224249 25.2579 0.0070078 24.9905 0.0070078H21.2369C20.9705 0.0070078 20.7542 0.223248 20.7542 0.490546C20.7542 0.778867 20.7552 1.08821 20.7542 1.33048C20.7562 2.05829 20.7542 3.42081 20.7542 4.3158C20.7542 4.55206 20.5619 4.74328 20.3256 4.74328H16.3788C16.1434 4.74328 15.9511 4.55106 15.9511 4.3168C15.9491 4.12659 15.9481 3.91936 15.9481 3.70212C15.9481 2.67698 15.9641 1.40857 15.9481 0.43148C15.9441 0.200223 15.7588 0.0150167 15.5285 0.0100111L10.0304 0.00100111C9.75299 0.00100111 9.52666 0.22425 9.52566 0.501558C9.52165 1.5297 9.54769 3.31669 9.53667 4.33082C9.53367 4.55307 9.3524 4.73026 9.13107 4.72926L5.1462 4.74328C4.92287 4.74328 4.72658 4.53505 4.72658 4.3118C4.72558 3.15751 4.73159 1.3475 4.72959 0.463516C4.72959 0.207231 4.52128 0 4.2649 0L0.42624 0.00800891C0.192896 0.0150167 0.00662176 0.203226 0.00461881 0.436486C-0.00639743 2.05629 0.00562028 7.0128 0.00662176 8.84084C0.00762324 9.20524 0.303059 9.50057 0.668598 9.50057H2.52834C2.91491 9.50057 3.21936 9.83094 3.18731 10.2164C2.90189 13.5931 2.11673 22.8034 2.04062 23.7044C2.03962 23.7214 2.04663 23.7324 2.06866 23.7364C2.10271 23.7434 2.17983 23.7334 2.296 23.7144C2.34807 23.7064 2.40816 23.6964 2.47126 23.6864C4.1978 23.382 6.01248 23.34 7.78709 23.357C8.00942 23.33 8.10556 23.0927 8.15363 22.8765C8.91576 19.8181 12.7063 18.3294 15.3673 20.1464C15.7328 20.3867 16.0613 20.686 16.3477 21.0084C16.551 21.2496 16.7994 21.2226 17.0397 21.0765C18.7272 20.1875 20.589 19.5137 22.5639 19.0752C22.7141 19.0442 22.9484 19.0041 23.0045 18.892C23.0246 18.848 23.0256 18.7949 23.0216 18.7419C22.9605 18.0861 22.8443 16.6025 22.7742 15.8256C22.7271 15.241 22.4277 11.8232 22.3005 10.2134C22.2704 9.82894 22.5739 9.50057 22.9595 9.50057H24.8172C25.1787 9.50057 25.4722 9.21025 25.4782 8.84885C25.5052 7.03583 25.4672 2.12336 25.4732 0.491547ZM11.093 14.0937C11.093 14.374 10.8656 14.6002 10.5852 14.6002H6.75958C6.47916 14.6002 6.25083 14.373 6.25083 14.0927V10.2634C6.25083 9.98311 6.47816 9.75585 6.75958 9.75585H10.5852C10.8666 9.75585 11.094 9.98311 11.094 10.2634C11.093 11.1935 11.093 13.1626 11.093 14.0937ZM19.1068 14.0937C19.1068 14.374 18.8794 14.6002 18.599 14.6002H14.7734C14.493 14.6002 14.2646 14.373 14.2646 14.0927V10.2634C14.2646 9.98311 14.492 9.75585 14.7734 9.75585H18.599C18.8804 9.75585 19.1078 9.98311 19.1078 10.2634C19.1078 11.1935 19.1068 13.1626 19.1068 14.0937Z" fill="#754043"/>
<path d="M16.1744 25.3928C15.8619 25.2627 15.5454 25.1396 15.227 25.0244C15.1018 24.9784 15.0657 24.8172 15.1639 24.7261C15.5755 24.3457 16.0071 23.9863 16.4548 23.6489C17.0416 23.2044 17.6565 22.7959 18.2915 22.4235C19.5874 21.6617 21.0245 21.024 22.4857 20.5444C22.698 20.4994 23.0625 20.2701 23.1787 20.5134C23.2348 20.6325 23.2428 20.8888 23.2638 21.1111C23.2959 21.3984 23.2498 21.6156 22.9333 21.7027C21.1267 22.3064 19.5063 23.0763 18.0181 24.0814C17.5274 24.4147 17.0627 24.7651 16.626 25.1325C16.5359 25.2086 16.4468 25.2847 16.3596 25.3618C16.3086 25.4069 16.2365 25.4189 16.1744 25.3928Z" fill="#754043"/>
<path d="M19.4311 27.0601C19.1787 26.9029 18.9233 26.7517 18.664 26.6056C18.5398 26.5355 18.5198 26.3643 18.6259 26.2702C19.9028 25.149 21.372 24.28 22.9813 23.6213C23.5572 23.342 23.4771 23.7234 23.5321 24.2099C23.6093 24.7475 23.3699 24.8106 22.9373 24.9988C21.7064 25.5574 20.6048 26.2482 19.6745 27.0421C19.6054 27.1011 19.5082 27.1081 19.4311 27.0611V27.0601Z" fill="#754043"/>
<path d="M19.9807 29.5157C20.4213 29.834 21.2095 30.5909 21.5921 30.9783C21.8725 31.2616 22.1779 31.5489 22.3742 31.8883C22.3952 31.9994 22.234 31.9874 22.1549 31.9954C21.8815 31.9984 21.4158 31.9984 21.1374 31.9954C20.84 32.0034 20.6607 31.8743 20.4544 31.6511C19.9196 31.1185 19.3437 30.6289 18.7399 30.1844C17.5551 29.3124 16.2692 28.5987 14.9202 28.027C13.6594 27.4914 12.3414 27.082 10.9994 26.7836C10.4446 26.6615 9.8828 26.5584 9.31596 26.4743C7.38211 26.19 5.39117 26.1309 3.44831 26.2931C3.03169 26.3271 2.61508 26.3732 2.21048 26.4272C2.05626 26.4493 1.82792 26.4793 1.80388 26.3041C1.79888 26.2861 1.79587 26.2651 1.79387 26.242C1.78986 26.176 1.79187 26.1069 1.79487 26.0378C1.80188 25.9177 1.8159 25.7955 1.82592 25.6794C1.84595 25.4682 1.88901 25.325 1.99416 25.2589C2.07028 25.2079 2.17844 25.1909 2.30462 25.1738C4.47883 24.9055 6.76019 24.9096 8.96044 25.1839C9.4081 25.2399 9.85275 25.307 10.2924 25.3851C11.2037 25.5453 12.1191 25.7625 12.9974 26.0208C13.0955 26.0488 13.1927 26.0779 13.2898 26.1079C13.3259 26.1199 13.3609 26.1299 13.396 26.1359C14.0479 26.3321 14.6919 26.5474 15.3078 26.8187C15.7164 26.9989 16.5496 27.3603 16.9282 27.5745L16.9302 27.5755C17.514 27.8789 18.0889 28.1992 18.6317 28.5656C18.9732 28.7969 19.6462 29.2744 19.9807 29.5157Z" fill="#754043"/>
<path d="M23.5226 28.3355C23.1821 28.5698 22.8577 28.8261 22.5592 29.0984C22.4681 29.1814 22.3289 29.1814 22.2357 29.1014C22.0385 28.9332 21.8372 28.768 21.6339 28.6058C21.5137 28.5107 21.5067 28.3325 21.6208 28.2294C21.7781 28.0872 21.9573 27.9351 22.1636 27.7729C22.6143 27.4235 23.0449 27.1202 23.5156 26.8689C23.8251 26.7127 23.777 27.1832 23.8091 27.3764C23.8561 27.8119 23.8992 28.1163 23.5246 28.3345L23.5226 28.3355Z" fill="#754043"/>
</svg>
